<svg xmlns="http://www.w3.org/2000/svg" width="1000" height="520" viewBox="0 0 1000 520">
  <rect width="100%" height="100%" fill="#ffffff"/>
  <style>
    .title{font:700 28px Arial, sans-serif; fill:#172033}
    .label{font:700 21px Arial, sans-serif; fill:#172033}
    .small{font:16px Arial, sans-serif; fill:#596579}
    .count{font:700 18px Arial, sans-serif; fill:#234f73}
    .bond{stroke:#172033;stroke-width:7;stroke-linecap:round}
    .panel{fill:#f3f6f9;stroke:#cfd8e3;stroke-width:2;rx:18}
    .arrow{stroke:#234f73;stroke-width:7;marker-end:url(#arrow);fill:none}
  </style>
  <defs><marker id="arrow" markerWidth="14" markerHeight="14" refX="12" refY="7" orient="auto" markerUnits="strokeWidth"><path d="M0,0 L14,7 L0,14 z" fill="#234f73"/></marker></defs>
  <text x="40" y="48" class="title">Draw-check-count process</text>
<rect class="panel" x="50" y="95" width="400" height="330"/><rect class="panel" x="550" y="95" width="400" height="330"/>
<text x="250" y="138" text-anchor="middle" class="label">Before</text>
<text x="750" y="138" text-anchor="middle" class="label">After</text><line class="bond" x1="130" y1="235" x2="210" y2="235"/><circle cx="130" cy="235" r="32" fill="#dbe8f6" stroke="#172033" stroke-width="3"/><text x="130" y="242" text-anchor="middle" class="label" fill="#172033">H</text><circle cx="210" cy="235" r="32" fill="#dbe8f6" stroke="#172033" stroke-width="3"/><text x="210" y="242" text-anchor="middle" class="label" fill="#172033">H</text><line class="bond" x1="130" y1="335" x2="210" y2="335"/><circle cx="130" cy="335" r="32" fill="#dbe8f6" stroke="#172033" stroke-width="3"/><text x="130" y="342" text-anchor="middle" class="label" fill="#172033">H</text><circle cx="210" cy="335" r="32" fill="#dbe8f6" stroke="#172033" stroke-width="3"/><text x="210" y="342" text-anchor="middle" class="label" fill="#172033">H</text><line class="bond" x1="310" y1="285" x2="390" y2="285"/><circle cx="310" cy="285" r="36" fill="#ee8b8b" stroke="#172033" stroke-width="3"/><text x="310" y="292" text-anchor="middle" class="label" fill="#172033">O</text><circle cx="390" cy="285" r="36" fill="#ee8b8b" stroke="#172033" stroke-width="3"/><text x="390" y="292" text-anchor="middle" class="label" fill="#172033">O</text><path class="arrow" d="M470,278 C500,278 515,278 535,278"/><line class="bond" x1="625" y1="245" x2="700" y2="205"/><line class="bond" x1="700" y1="205" x2="775" y2="245"/><circle cx="625" cy="245" r="28" fill="#dbe8f6" stroke="#172033" stroke-width="3"/><text x="625" y="252" text-anchor="middle" class="label" fill="#172033">H</text><circle cx="700" cy="205" r="40" fill="#ee8b8b" stroke="#172033" stroke-width="3"/><text x="700" y="212" text-anchor="middle" class="label" fill="#172033">O</text><circle cx="775" cy="245" r="28" fill="#dbe8f6" stroke="#172033" stroke-width="3"/><text x="775" y="252" text-anchor="middle" class="label" fill="#172033">H</text><line class="bond" x1="625" y1="350" x2="700" y2="310"/><line class="bond" x1="700" y1="310" x2="775" y2="350"/><circle cx="625" cy="350" r="28" fill="#dbe8f6" stroke="#172033" stroke-width="3"/><text x="625" y="357" text-anchor="middle" class="label" fill="#172033">H</text><circle cx="700" cy="310" r="40" fill="#ee8b8b" stroke="#172033" stroke-width="3"/><text x="700" y="317" text-anchor="middle" class="label" fill="#172033">O</text><circle cx="775" cy="350" r="28" fill="#dbe8f6" stroke="#172033" stroke-width="3"/><text x="775" y="357" text-anchor="middle" class="label" fill="#172033">H</text><text x="250" y="395" text-anchor="middle" class="count">Count: H = 4, O = 2</text><text x="750" y="395" text-anchor="middle" class="count">Count: H = 4, O = 2</text>
</svg>