<?xml version="1.0" encoding="utf-8" standalone="no"?>
<!DOCTYPE svg PUBLIC "-//W3C//DTD SVG 1.1//EN"
  "http://www.w3.org/Graphics/SVG/1.1/DTD/svg11.dtd">
<svg xmlns:xlink="http://www.w3.org/1999/xlink" width="244.770177pt" height="206.999149pt" viewBox="0 0 244.770177 206.999149" xmlns="http://www.w3.org/2000/svg" version="1.1">
 <metadata>
  <rdf:RDF xmlns:dc="http://purl.org/dc/elements/1.1/" xmlns:cc="http://creativecommons.org/ns#" xmlns:rdf="http://www.w3.org/1999/02/22-rdf-syntax-ns#">
   <cc:Work>
    <dc:type rdf:resource="http://purl.org/dc/dcmitype/StillImage"/>
    <dc:date>2026-10-05T02:49:11.166593</dc:date>
    <dc:format>image/svg+xml</dc:format>
    <dc:creator>
     <cc:Agent>
      <dc:title>Matplotlib v3.10.8, https://matplotlib.org/</dc:title>
     </cc:Agent>
    </dc:creator>
   </cc:Work>
  </rdf:RDF>
 </metadata>
 <defs>
  <style type="text/css">*{stroke-linejoin: round; stroke-linecap: butt}</style>
 </defs>
 <g id="figure_1">
  <g id="patch_1">
   <path d="M 0 206.999149 
L 244.770177 206.999149 
L 244.770177 -0 
L 0 -0 
z
" style="fill: #ffffff"/>
  </g>
  <g id="axes_1">
   <g id="patch_2">
    <path d="M 47.279063 163.071649 
L 236.999063 163.071649 
L 236.999063 7.839649 
L 47.279063 7.839649 
z
" style="fill: #ffffff"/>
   </g>
   <g id="line2d_1">
    <path d="M 47.279063 163.071649 
L 47.279063 11.379141 
" clip-path="url(#p64176ae17b)" style="fill: none; stroke: #aaaaaa; stroke-width: 0.6; stroke-linecap: square"/>
   </g>
   <g id="line2d_2">
    <path d="M 65.609497 163.071649 
L 65.609497 11.379141 
" clip-path="url(#p64176ae17b)" style="fill: none; stroke: #aaaaaa; stroke-width: 0.6; stroke-linecap: square"/>
   </g>
   <g id="line2d_3">
    <path d="M 83.939932 163.071649 
L 83.939932 11.379141 
" clip-path="url(#p64176ae17b)" style="fill: none; stroke: #aaaaaa; stroke-width: 0.6; stroke-linecap: square"/>
   </g>
   <g id="line2d_4">
    <path d="M 102.270367 163.071649 
L 102.270367 11.379141 
" clip-path="url(#p64176ae17b)" style="fill: none; stroke: #aaaaaa; stroke-width: 0.6; stroke-linecap: square"/>
   </g>
   <g id="line2d_5">
    <path d="M 120.600802 163.071649 
L 120.600802 11.379141 
" clip-path="url(#p64176ae17b)" style="fill: none; stroke: #aaaaaa; stroke-width: 0.6; stroke-linecap: square"/>
   </g>
   <g id="line2d_6">
    <path d="M 138.931236 163.071649 
L 138.931236 11.379141 
" clip-path="url(#p64176ae17b)" style="fill: none; stroke: #aaaaaa; stroke-width: 0.6; stroke-linecap: square"/>
   </g>
   <g id="line2d_7">
    <path d="M 157.261671 163.071649 
L 157.261671 11.379141 
" clip-path="url(#p64176ae17b)" style="fill: none; stroke: #aaaaaa; stroke-width: 0.6; stroke-linecap: square"/>
   </g>
   <g id="line2d_8">
    <path d="M 175.592106 163.071649 
L 175.592106 11.379141 
" clip-path="url(#p64176ae17b)" style="fill: none; stroke: #aaaaaa; stroke-width: 0.6; stroke-linecap: square"/>
   </g>
   <g id="line2d_9">
    <path d="M 193.922541 163.071649 
L 193.922541 11.379141 
" clip-path="url(#p64176ae17b)" style="fill: none; stroke: #aaaaaa; stroke-width: 0.6; stroke-linecap: square"/>
   </g>
   <g id="line2d_10">
    <path d="M 212.252976 163.071649 
L 212.252976 11.379141 
" clip-path="url(#p64176ae17b)" style="fill: none; stroke: #aaaaaa; stroke-width: 0.6; stroke-linecap: square"/>
   </g>
   <g id="line2d_11">
    <path d="M 230.58341 163.071649 
L 230.58341 11.379141 
" clip-path="url(#p64176ae17b)" style="fill: none; stroke: #aaaaaa; stroke-width: 0.6; stroke-linecap: square"/>
   </g>
   <g id="line2d_12">
    <path d="M 47.279063 163.071649 
L 230.58341 163.071649 
" clip-path="url(#p64176ae17b)" style="fill: none; stroke: #aaaaaa; stroke-width: 0.6; stroke-linecap: square"/>
   </g>
   <g id="line2d_13">
    <path d="M 47.279063 152.958815 
L 230.58341 152.958815 
" clip-path="url(#p64176ae17b)" style="fill: none; stroke: #aaaaaa; stroke-width: 0.6; stroke-linecap: square"/>
   </g>
   <g id="line2d_14">
    <path d="M 47.279063 142.845981 
L 230.58341 142.845981 
" clip-path="url(#p64176ae17b)" style="fill: none; stroke: #aaaaaa; stroke-width: 0.6; stroke-linecap: square"/>
   </g>
   <g id="line2d_15">
    <path d="M 47.279063 132.733147 
L 230.58341 132.733147 
" clip-path="url(#p64176ae17b)" style="fill: none; stroke: #aaaaaa; stroke-width: 0.6; stroke-linecap: square"/>
   </g>
   <g id="line2d_16">
    <path d="M 47.279063 122.620313 
L 230.58341 122.620313 
" clip-path="url(#p64176ae17b)" style="fill: none; stroke: #aaaaaa; stroke-width: 0.6; stroke-linecap: square"/>
   </g>
   <g id="line2d_17">
    <path d="M 47.279063 112.507479 
L 230.58341 112.507479 
" clip-path="url(#p64176ae17b)" style="fill: none; stroke: #aaaaaa; stroke-width: 0.6; stroke-linecap: square"/>
   </g>
   <g id="line2d_18">
    <path d="M 47.279063 102.394646 
L 230.58341 102.394646 
" clip-path="url(#p64176ae17b)" style="fill: none; stroke: #aaaaaa; stroke-width: 0.6; stroke-linecap: square"/>
   </g>
   <g id="line2d_19">
    <path d="M 47.279063 92.281812 
L 230.58341 92.281812 
" clip-path="url(#p64176ae17b)" style="fill: none; stroke: #aaaaaa; stroke-width: 0.6; stroke-linecap: square"/>
   </g>
   <g id="line2d_20">
    <path d="M 47.279063 82.168978 
L 230.58341 82.168978 
" clip-path="url(#p64176ae17b)" style="fill: none; stroke: #aaaaaa; stroke-width: 0.6; stroke-linecap: square"/>
   </g>
   <g id="line2d_21">
    <path d="M 47.279063 72.056144 
L 230.58341 72.056144 
" clip-path="url(#p64176ae17b)" style="fill: none; stroke: #aaaaaa; stroke-width: 0.6; stroke-linecap: square"/>
   </g>
   <g id="line2d_22">
    <path d="M 47.279063 61.94331 
L 230.58341 61.94331 
" clip-path="url(#p64176ae17b)" style="fill: none; stroke: #aaaaaa; stroke-width: 0.6; stroke-linecap: square"/>
   </g>
   <g id="line2d_23">
    <path d="M 47.279063 51.830476 
L 230.58341 51.830476 
" clip-path="url(#p64176ae17b)" style="fill: none; stroke: #aaaaaa; stroke-width: 0.6; stroke-linecap: square"/>
   </g>
   <g id="line2d_24">
    <path d="M 47.279063 41.717642 
L 230.58341 41.717642 
" clip-path="url(#p64176ae17b)" style="fill: none; stroke: #aaaaaa; stroke-width: 0.6; stroke-linecap: square"/>
   </g>
   <g id="line2d_25">
    <path d="M 47.279063 31.604808 
L 230.58341 31.604808 
" clip-path="url(#p64176ae17b)" style="fill: none; stroke: #aaaaaa; stroke-width: 0.6; stroke-linecap: square"/>
   </g>
   <g id="line2d_26">
    <path d="M 47.279063 21.491975 
L 230.58341 21.491975 
" clip-path="url(#p64176ae17b)" style="fill: none; stroke: #aaaaaa; stroke-width: 0.6; stroke-linecap: square"/>
   </g>
   <g id="line2d_27">
    <path d="M 47.279063 11.379141 
L 230.58341 11.379141 
" clip-path="url(#p64176ae17b)" style="fill: none; stroke: #aaaaaa; stroke-width: 0.6; stroke-linecap: square"/>
   </g>
   <g id="matplotlib.axis_1">
    <g id="xtick_1">
     <g id="line2d_28">
      <defs>
       <path id="m0cc0b3e715" d="M 0 0 
L 0 4 
" style="stroke: #444444; stroke-width: 1.2"/>
      </defs>
      <g>
       <use xlink:href="#m0cc0b3e715" x="47.279063" y="163.071649" style="fill: #444444; stroke: #444444; stroke-width: 1.2"/>
      </g>
     </g>
     <g id="text_1">
      <!-- 0 -->
      <g transform="translate(43.779688 178.92993) scale(0.11 -0.11)">
       <defs>
        <path id="DejaVuSans-30" d="M 2034 4250 
Q 1547 4250 1301 3770 
Q 1056 3291 1056 2328 
Q 1056 1369 1301 889 
Q 1547 409 2034 409 
Q 2525 409 2770 889 
Q 3016 1369 3016 2328 
Q 3016 3291 2770 3770 
Q 2525 4250 2034 4250 
z
M 2034 4750 
Q 2819 4750 3233 4129 
Q 3647 3509 3647 2328 
Q 3647 1150 3233 529 
Q 2819 -91 2034 -91 
Q 1250 -91 836 529 
Q 422 1150 422 2328 
Q 422 3509 836 4129 
Q 1250 4750 2034 4750 
z
" transform="scale(0.015625)"/>
       </defs>
       <use xlink:href="#DejaVuSans-30"/>
      </g>
     </g>
    </g>
    <g id="xtick_2">
     <g id="line2d_29">
      <g>
       <use xlink:href="#m0cc0b3e715" x="102.270367" y="163.071649" style="fill: #444444; stroke: #444444; stroke-width: 1.2"/>
      </g>
     </g>
     <g id="text_2">
      <!-- 3 -->
      <g transform="translate(98.770992 178.92993) scale(0.11 -0.11)">
       <defs>
        <path id="DejaVuSans-33" d="M 2597 2516 
Q 3050 2419 3304 2112 
Q 3559 1806 3559 1356 
Q 3559 666 3084 287 
Q 2609 -91 1734 -91 
Q 1441 -91 1130 -33 
Q 819 25 488 141 
L 488 750 
Q 750 597 1062 519 
Q 1375 441 1716 441 
Q 2309 441 2620 675 
Q 2931 909 2931 1356 
Q 2931 1769 2642 2001 
Q 2353 2234 1838 2234 
L 1294 2234 
L 1294 2753 
L 1863 2753 
Q 2328 2753 2575 2939 
Q 2822 3125 2822 3475 
Q 2822 3834 2567 4026 
Q 2313 4219 1838 4219 
Q 1578 4219 1281 4162 
Q 984 4106 628 3988 
L 628 4550 
Q 988 4650 1302 4700 
Q 1616 4750 1894 4750 
Q 2613 4750 3031 4423 
Q 3450 4097 3450 3541 
Q 3450 3153 3228 2886 
Q 3006 2619 2597 2516 
z
" transform="scale(0.015625)"/>
       </defs>
       <use xlink:href="#DejaVuSans-33"/>
      </g>
     </g>
    </g>
    <g id="xtick_3">
     <g id="line2d_30">
      <g>
       <use xlink:href="#m0cc0b3e715" x="157.261671" y="163.071649" style="fill: #444444; stroke: #444444; stroke-width: 1.2"/>
      </g>
     </g>
     <g id="text_3">
      <!-- 6 -->
      <g transform="translate(153.762296 178.92993) scale(0.11 -0.11)">
       <defs>
        <path id="DejaVuSans-36" d="M 2113 2584 
Q 1688 2584 1439 2293 
Q 1191 2003 1191 1497 
Q 1191 994 1439 701 
Q 1688 409 2113 409 
Q 2538 409 2786 701 
Q 3034 994 3034 1497 
Q 3034 2003 2786 2293 
Q 2538 2584 2113 2584 
z
M 3366 4563 
L 3366 3988 
Q 3128 4100 2886 4159 
Q 2644 4219 2406 4219 
Q 1781 4219 1451 3797 
Q 1122 3375 1075 2522 
Q 1259 2794 1537 2939 
Q 1816 3084 2150 3084 
Q 2853 3084 3261 2657 
Q 3669 2231 3669 1497 
Q 3669 778 3244 343 
Q 2819 -91 2113 -91 
Q 1303 -91 875 529 
Q 447 1150 447 2328 
Q 447 3434 972 4092 
Q 1497 4750 2381 4750 
Q 2619 4750 2861 4703 
Q 3103 4656 3366 4563 
z
" transform="scale(0.015625)"/>
       </defs>
       <use xlink:href="#DejaVuSans-36"/>
      </g>
     </g>
    </g>
    <g id="xtick_4">
     <g id="line2d_31">
      <g>
       <use xlink:href="#m0cc0b3e715" x="212.252976" y="163.071649" style="fill: #444444; stroke: #444444; stroke-width: 1.2"/>
      </g>
     </g>
     <g id="text_4">
      <!-- 9 -->
      <g transform="translate(208.753601 178.92993) scale(0.11 -0.11)">
       <defs>
        <path id="DejaVuSans-39" d="M 703 97 
L 703 672 
Q 941 559 1184 500 
Q 1428 441 1663 441 
Q 2288 441 2617 861 
Q 2947 1281 2994 2138 
Q 2813 1869 2534 1725 
Q 2256 1581 1919 1581 
Q 1219 1581 811 2004 
Q 403 2428 403 3163 
Q 403 3881 828 4315 
Q 1253 4750 1959 4750 
Q 2769 4750 3195 4129 
Q 3622 3509 3622 2328 
Q 3622 1225 3098 567 
Q 2575 -91 1691 -91 
Q 1453 -91 1209 -44 
Q 966 3 703 97 
z
M 1959 2075 
Q 2384 2075 2632 2365 
Q 2881 2656 2881 3163 
Q 2881 3666 2632 3958 
Q 2384 4250 1959 4250 
Q 1534 4250 1286 3958 
Q 1038 3666 1038 3163 
Q 1038 2656 1286 2365 
Q 1534 2075 1959 2075 
z
" transform="scale(0.015625)"/>
       </defs>
       <use xlink:href="#DejaVuSans-39"/>
      </g>
     </g>
    </g>
    <g id="text_5">
     <!-- Hours after 8 a.m. -->
     <g transform="translate(75.189063 197.095555) scale(0.13 -0.13)">
      <defs>
       <path id="DejaVuSans-Bold-48" d="M 588 4666 
L 1791 4666 
L 1791 2888 
L 3566 2888 
L 3566 4666 
L 4769 4666 
L 4769 0 
L 3566 0 
L 3566 1978 
L 1791 1978 
L 1791 0 
L 588 0 
L 588 4666 
z
" transform="scale(0.015625)"/>
       <path id="DejaVuSans-Bold-6f" d="M 2203 2784 
Q 1831 2784 1636 2517 
Q 1441 2250 1441 1747 
Q 1441 1244 1636 976 
Q 1831 709 2203 709 
Q 2569 709 2762 976 
Q 2956 1244 2956 1747 
Q 2956 2250 2762 2517 
Q 2569 2784 2203 2784 
z
M 2203 3584 
Q 3106 3584 3614 3096 
Q 4122 2609 4122 1747 
Q 4122 884 3614 396 
Q 3106 -91 2203 -91 
Q 1297 -91 786 396 
Q 275 884 275 1747 
Q 275 2609 786 3096 
Q 1297 3584 2203 3584 
z
" transform="scale(0.015625)"/>
       <path id="DejaVuSans-Bold-75" d="M 500 1363 
L 500 3500 
L 1625 3500 
L 1625 3150 
Q 1625 2866 1622 2436 
Q 1619 2006 1619 1863 
Q 1619 1441 1641 1255 
Q 1663 1069 1716 984 
Q 1784 875 1895 815 
Q 2006 756 2150 756 
Q 2500 756 2700 1025 
Q 2900 1294 2900 1772 
L 2900 3500 
L 4019 3500 
L 4019 0 
L 2900 0 
L 2900 506 
Q 2647 200 2364 54 
Q 2081 -91 1741 -91 
Q 1134 -91 817 281 
Q 500 653 500 1363 
z
" transform="scale(0.015625)"/>
       <path id="DejaVuSans-Bold-72" d="M 3138 2547 
Q 2991 2616 2845 2648 
Q 2700 2681 2553 2681 
Q 2122 2681 1889 2404 
Q 1656 2128 1656 1613 
L 1656 0 
L 538 0 
L 538 3500 
L 1656 3500 
L 1656 2925 
Q 1872 3269 2151 3426 
Q 2431 3584 2822 3584 
Q 2878 3584 2943 3579 
Q 3009 3575 3134 3559 
L 3138 2547 
z
" transform="scale(0.015625)"/>
       <path id="DejaVuSans-Bold-73" d="M 3272 3391 
L 3272 2541 
Q 2913 2691 2578 2766 
Q 2244 2841 1947 2841 
Q 1628 2841 1473 2761 
Q 1319 2681 1319 2516 
Q 1319 2381 1436 2309 
Q 1553 2238 1856 2203 
L 2053 2175 
Q 2913 2066 3209 1816 
Q 3506 1566 3506 1031 
Q 3506 472 3093 190 
Q 2681 -91 1863 -91 
Q 1516 -91 1145 -36 
Q 775 19 384 128 
L 384 978 
Q 719 816 1070 734 
Q 1422 653 1784 653 
Q 2113 653 2278 743 
Q 2444 834 2444 1013 
Q 2444 1163 2330 1236 
Q 2216 1309 1875 1350 
L 1678 1375 
Q 931 1469 631 1722 
Q 331 1975 331 2491 
Q 331 3047 712 3315 
Q 1094 3584 1881 3584 
Q 2191 3584 2531 3537 
Q 2872 3491 3272 3391 
z
" transform="scale(0.015625)"/>
       <path id="DejaVuSans-Bold-20" transform="scale(0.015625)"/>
       <path id="DejaVuSans-Bold-61" d="M 2106 1575 
Q 1756 1575 1579 1456 
Q 1403 1338 1403 1106 
Q 1403 894 1545 773 
Q 1688 653 1941 653 
Q 2256 653 2472 879 
Q 2688 1106 2688 1447 
L 2688 1575 
L 2106 1575 
z
M 3816 1997 
L 3816 0 
L 2688 0 
L 2688 519 
Q 2463 200 2181 54 
Q 1900 -91 1497 -91 
Q 953 -91 614 226 
Q 275 544 275 1050 
Q 275 1666 698 1953 
Q 1122 2241 2028 2241 
L 2688 2241 
L 2688 2328 
Q 2688 2594 2478 2717 
Q 2269 2841 1825 2841 
Q 1466 2841 1156 2769 
Q 847 2697 581 2553 
L 581 3406 
Q 941 3494 1303 3539 
Q 1666 3584 2028 3584 
Q 2975 3584 3395 3211 
Q 3816 2838 3816 1997 
z
" transform="scale(0.015625)"/>
       <path id="DejaVuSans-Bold-66" d="M 2841 4863 
L 2841 4128 
L 2222 4128 
Q 1984 4128 1890 4042 
Q 1797 3956 1797 3744 
L 1797 3500 
L 2753 3500 
L 2753 2700 
L 1797 2700 
L 1797 0 
L 678 0 
L 678 2700 
L 122 2700 
L 122 3500 
L 678 3500 
L 678 3744 
Q 678 4316 997 4589 
Q 1316 4863 1984 4863 
L 2841 4863 
z
" transform="scale(0.015625)"/>
       <path id="DejaVuSans-Bold-74" d="M 1759 4494 
L 1759 3500 
L 2913 3500 
L 2913 2700 
L 1759 2700 
L 1759 1216 
Q 1759 972 1856 886 
Q 1953 800 2241 800 
L 2816 800 
L 2816 0 
L 1856 0 
Q 1194 0 917 276 
Q 641 553 641 1216 
L 641 2700 
L 84 2700 
L 84 3500 
L 641 3500 
L 641 4494 
L 1759 4494 
z
" transform="scale(0.015625)"/>
       <path id="DejaVuSans-Bold-65" d="M 4031 1759 
L 4031 1441 
L 1416 1441 
Q 1456 1047 1700 850 
Q 1944 653 2381 653 
Q 2734 653 3104 758 
Q 3475 863 3866 1075 
L 3866 213 
Q 3469 63 3072 -14 
Q 2675 -91 2278 -91 
Q 1328 -91 801 392 
Q 275 875 275 1747 
Q 275 2603 792 3093 
Q 1309 3584 2216 3584 
Q 3041 3584 3536 3087 
Q 4031 2591 4031 1759 
z
M 2881 2131 
Q 2881 2450 2695 2645 
Q 2509 2841 2209 2841 
Q 1884 2841 1681 2658 
Q 1478 2475 1428 2131 
L 2881 2131 
z
" transform="scale(0.015625)"/>
       <path id="DejaVuSans-Bold-38" d="M 2228 2088 
Q 1891 2088 1709 1903 
Q 1528 1719 1528 1375 
Q 1528 1031 1709 848 
Q 1891 666 2228 666 
Q 2563 666 2741 848 
Q 2919 1031 2919 1375 
Q 2919 1722 2741 1905 
Q 2563 2088 2228 2088 
z
M 1350 2484 
Q 925 2613 709 2878 
Q 494 3144 494 3541 
Q 494 4131 934 4440 
Q 1375 4750 2228 4750 
Q 3075 4750 3515 4442 
Q 3956 4134 3956 3541 
Q 3956 3144 3739 2878 
Q 3522 2613 3097 2484 
Q 3572 2353 3814 2058 
Q 4056 1763 4056 1313 
Q 4056 619 3595 264 
Q 3134 -91 2228 -91 
Q 1319 -91 855 264 
Q 391 619 391 1313 
Q 391 1763 633 2058 
Q 875 2353 1350 2484 
z
M 1631 3419 
Q 1631 3141 1786 2991 
Q 1941 2841 2228 2841 
Q 2509 2841 2662 2991 
Q 2816 3141 2816 3419 
Q 2816 3697 2662 3845 
Q 2509 3994 2228 3994 
Q 1941 3994 1786 3844 
Q 1631 3694 1631 3419 
z
" transform="scale(0.015625)"/>
       <path id="DejaVuSans-Bold-2e" d="M 653 1209 
L 1778 1209 
L 1778 0 
L 653 0 
L 653 1209 
z
" transform="scale(0.015625)"/>
       <path id="DejaVuSans-Bold-6d" d="M 3781 2919 
Q 3994 3244 4286 3414 
Q 4578 3584 4928 3584 
Q 5531 3584 5847 3212 
Q 6163 2841 6163 2131 
L 6163 0 
L 5038 0 
L 5038 1825 
Q 5041 1866 5042 1909 
Q 5044 1953 5044 2034 
Q 5044 2406 4934 2573 
Q 4825 2741 4581 2741 
Q 4263 2741 4089 2478 
Q 3916 2216 3909 1719 
L 3909 0 
L 2784 0 
L 2784 1825 
Q 2784 2406 2684 2573 
Q 2584 2741 2328 2741 
Q 2006 2741 1831 2477 
Q 1656 2213 1656 1722 
L 1656 0 
L 531 0 
L 531 3500 
L 1656 3500 
L 1656 2988 
Q 1863 3284 2130 3434 
Q 2397 3584 2719 3584 
Q 3081 3584 3359 3409 
Q 3638 3234 3781 2919 
z
" transform="scale(0.015625)"/>
      </defs>
      <use xlink:href="#DejaVuSans-Bold-48"/>
      <use xlink:href="#DejaVuSans-Bold-6f" transform="translate(83.691406 0)"/>
      <use xlink:href="#DejaVuSans-Bold-75" transform="translate(152.392578 0)"/>
      <use xlink:href="#DejaVuSans-Bold-72" transform="translate(223.583984 0)"/>
      <use xlink:href="#DejaVuSans-Bold-73" transform="translate(272.900391 0)"/>
      <use xlink:href="#DejaVuSans-Bold-20" transform="translate(332.421875 0)"/>
      <use xlink:href="#DejaVuSans-Bold-61" transform="translate(367.236328 0)"/>
      <use xlink:href="#DejaVuSans-Bold-66" transform="translate(434.716797 0)"/>
      <use xlink:href="#DejaVuSans-Bold-74" transform="translate(478.222656 0)"/>
      <use xlink:href="#DejaVuSans-Bold-65" transform="translate(526.025391 0)"/>
      <use xlink:href="#DejaVuSans-Bold-72" transform="translate(593.847656 0)"/>
      <use xlink:href="#DejaVuSans-Bold-20" transform="translate(643.164062 0)"/>
      <use xlink:href="#DejaVuSans-Bold-38" transform="translate(677.978516 0)"/>
      <use xlink:href="#DejaVuSans-Bold-20" transform="translate(747.558594 0)"/>
      <use xlink:href="#DejaVuSans-Bold-61" transform="translate(782.373047 0)"/>
      <use xlink:href="#DejaVuSans-Bold-2e" transform="translate(849.853516 0)"/>
      <use xlink:href="#DejaVuSans-Bold-6d" transform="translate(887.841797 0)"/>
      <use xlink:href="#DejaVuSans-Bold-2e" transform="translate(992.041016 0)"/>
     </g>
    </g>
   </g>
   <g id="matplotlib.axis_2">
    <g id="ytick_1">
     <g id="line2d_32">
      <defs>
       <path id="m0621185f32" d="M 0 0 
L -4 0 
" style="stroke: #444444; stroke-width: 1.2"/>
      </defs>
      <g>
       <use xlink:href="#m0621185f32" x="47.279063" y="163.071649" style="fill: #444444; stroke: #444444; stroke-width: 1.2"/>
      </g>
     </g>
     <g id="text_6">
      <!-- 0 -->
      <g transform="translate(32.780313 167.250789) scale(0.11 -0.11)">
       <use xlink:href="#DejaVuSans-30"/>
      </g>
     </g>
    </g>
    <g id="ytick_2">
     <g id="line2d_33">
      <g>
       <use xlink:href="#m0621185f32" x="47.279063" y="112.507479" style="fill: #444444; stroke: #444444; stroke-width: 1.2"/>
      </g>
     </g>
     <g id="text_7">
      <!-- 10 -->
      <g transform="translate(25.781563 116.68662) scale(0.11 -0.11)">
       <defs>
        <path id="DejaVuSans-31" d="M 794 531 
L 1825 531 
L 1825 4091 
L 703 3866 
L 703 4441 
L 1819 4666 
L 2450 4666 
L 2450 531 
L 3481 531 
L 3481 0 
L 794 0 
L 794 531 
z
" transform="scale(0.015625)"/>
       </defs>
       <use xlink:href="#DejaVuSans-31"/>
       <use xlink:href="#DejaVuSans-30" transform="translate(63.623047 0)"/>
      </g>
     </g>
    </g>
    <g id="ytick_3">
     <g id="line2d_34">
      <g>
       <use xlink:href="#m0621185f32" x="47.279063" y="61.94331" style="fill: #444444; stroke: #444444; stroke-width: 1.2"/>
      </g>
     </g>
     <g id="text_8">
      <!-- 20 -->
      <g transform="translate(25.781563 66.122451) scale(0.11 -0.11)">
       <defs>
        <path id="DejaVuSans-32" d="M 1228 531 
L 3431 531 
L 3431 0 
L 469 0 
L 469 531 
Q 828 903 1448 1529 
Q 2069 2156 2228 2338 
Q 2531 2678 2651 2914 
Q 2772 3150 2772 3378 
Q 2772 3750 2511 3984 
Q 2250 4219 1831 4219 
Q 1534 4219 1204 4116 
Q 875 4013 500 3803 
L 500 4441 
Q 881 4594 1212 4672 
Q 1544 4750 1819 4750 
Q 2544 4750 2975 4387 
Q 3406 4025 3406 3419 
Q 3406 3131 3298 2873 
Q 3191 2616 2906 2266 
Q 2828 2175 2409 1742 
Q 1991 1309 1228 531 
z
" transform="scale(0.015625)"/>
       </defs>
       <use xlink:href="#DejaVuSans-32"/>
       <use xlink:href="#DejaVuSans-30" transform="translate(63.623047 0)"/>
      </g>
     </g>
    </g>
    <g id="ytick_4">
     <g id="line2d_35">
      <g>
       <use xlink:href="#m0621185f32" x="47.279063" y="11.379141" style="fill: #444444; stroke: #444444; stroke-width: 1.2"/>
      </g>
     </g>
     <g id="text_9">
      <!-- 30 -->
      <g transform="translate(25.781563 15.558281) scale(0.11 -0.11)">
       <use xlink:href="#DejaVuSans-33"/>
       <use xlink:href="#DejaVuSans-30" transform="translate(63.623047 0)"/>
      </g>
     </g>
    </g>
    <g id="text_10">
     <!-- Temperature -->
     <g transform="translate(17.077969 132.211977) rotate(-90) scale(0.13 -0.13)">
      <defs>
       <path id="DejaVuSans-Bold-54" d="M 31 4666 
L 4331 4666 
L 4331 3756 
L 2784 3756 
L 2784 0 
L 1581 0 
L 1581 3756 
L 31 3756 
L 31 4666 
z
" transform="scale(0.015625)"/>
       <path id="DejaVuSans-Bold-70" d="M 1656 506 
L 1656 -1331 
L 538 -1331 
L 538 3500 
L 1656 3500 
L 1656 2988 
Q 1888 3294 2169 3439 
Q 2450 3584 2816 3584 
Q 3463 3584 3878 3070 
Q 4294 2556 4294 1747 
Q 4294 938 3878 423 
Q 3463 -91 2816 -91 
Q 2450 -91 2169 54 
Q 1888 200 1656 506 
z
M 2400 2772 
Q 2041 2772 1848 2508 
Q 1656 2244 1656 1747 
Q 1656 1250 1848 986 
Q 2041 722 2400 722 
Q 2759 722 2948 984 
Q 3138 1247 3138 1747 
Q 3138 2247 2948 2509 
Q 2759 2772 2400 2772 
z
" transform="scale(0.015625)"/>
      </defs>
      <use xlink:href="#DejaVuSans-Bold-54"/>
      <use xlink:href="#DejaVuSans-Bold-65" transform="translate(54.962891 0)"/>
      <use xlink:href="#DejaVuSans-Bold-6d" transform="translate(122.785156 0)"/>
      <use xlink:href="#DejaVuSans-Bold-70" transform="translate(226.984375 0)"/>
      <use xlink:href="#DejaVuSans-Bold-65" transform="translate(298.566406 0)"/>
      <use xlink:href="#DejaVuSans-Bold-72" transform="translate(366.388672 0)"/>
      <use xlink:href="#DejaVuSans-Bold-61" transform="translate(415.705078 0)"/>
      <use xlink:href="#DejaVuSans-Bold-74" transform="translate(483.185547 0)"/>
      <use xlink:href="#DejaVuSans-Bold-75" transform="translate(530.988281 0)"/>
      <use xlink:href="#DejaVuSans-Bold-72" transform="translate(602.179688 0)"/>
      <use xlink:href="#DejaVuSans-Bold-65" transform="translate(651.496094 0)"/>
     </g>
    </g>
   </g>
   <g id="patch_3">
    <path d="M 47.279063 163.071649 
L 47.279063 7.839649 
" style="fill: none; stroke: #222222; stroke-width: 1.8; stroke-linejoin: miter; stroke-linecap: square"/>
   </g>
   <g id="patch_4">
    <path d="M 47.279063 163.071649 
L 236.999062 163.071649 
" style="fill: none; stroke: #222222; stroke-width: 1.8; stroke-linejoin: miter; stroke-linecap: square"/>
   </g>
   <g id="line2d_36">
    <path d="M 47.279063 112.507479 
L 120.717503 51.830476 
L 157.395044 51.904057 
L 230.58341 92.281812 
L 230.58341 92.281812 
" clip-path="url(#p64176ae17b)" style="fill: none; stroke: #4682b4; stroke-width: 2; stroke-linecap: square"/>
   </g>
   <g id="patch_5">
    <path d="M 45.737927 113.782837 
Q 45.204262 114.224469 45.962613 113.5969 
" style="fill: none; stroke: #4682b4; stroke-width: 1.5; stroke-linecap: round"/>
    <path d="M 51.190698 112.385651 
L 45.962613 113.5969 
L 48.130465 108.687682 
z
" style="fill: #4682b4; stroke: #4682b4; stroke-width: 1.5; stroke-linecap: round"/>
   </g>
   <g id="patch_6">
    <path d="M 232.337813 93.249709 
Q 232.430383 93.30078 231.054548 92.541736 
" style="fill: none; stroke: #4682b4; stroke-width: 1.5; stroke-linecap: round"/>
    <path d="M 228.011066 88.121643 
L 231.054548 92.541736 
L 225.692384 92.324466 
z
" style="fill: #4682b4; stroke: #4682b4; stroke-width: 1.5; stroke-linecap: round"/>
   </g>
   <g id="patch_7">
    <path d="M 232.583826 163.071649 
Q 236.083232 163.071649 237.570177 163.071649 
" style="fill: none; stroke: #222222; stroke-width: 1.8; stroke-linecap: round"/>
    <path d="M 231.970177 160.271649 
L 237.570177 163.071649 
L 231.970177 165.871649 
z
" style="fill: #222222; stroke: #222222; stroke-width: 1.8; stroke-linecap: round"/>
   </g>
   <g id="patch_8">
    <path d="M 47.279063 9.379288 
Q 47.279063 8.34445 47.279063 9.322073 
" style="fill: none; stroke: #222222; stroke-width: 1.8; stroke-linecap: round"/>
    <path d="M 44.479063 14.922073 
L 47.279063 9.322073 
L 50.079063 14.922073 
z
" style="fill: #222222; stroke: #222222; stroke-width: 1.8; stroke-linecap: round"/>
   </g>
  </g>
 </g>
 <defs>
  <clipPath id="p64176ae17b">
   <rect x="47.279063" y="7.839649" width="189.72" height="155.232"/>
  </clipPath>
 </defs>
</svg>
