<?xml version="1.0" encoding="utf-8" standalone="no"?>
<!DOCTYPE svg PUBLIC "-//W3C//DTD SVG 1.1//EN"
  "http://www.w3.org/Graphics/SVG/1.1/DTD/svg11.dtd">
<svg xmlns:xlink="http://www.w3.org/1999/xlink" width="196.835421pt" height="193.708928pt" viewBox="0 0 196.835421 193.708928" xmlns="http://www.w3.org/2000/svg" version="1.1">
 <metadata>
  <rdf:RDF xmlns:dc="http://purl.org/dc/elements/1.1/" xmlns:cc="http://creativecommons.org/ns#" xmlns:rdf="http://www.w3.org/1999/02/22-rdf-syntax-ns#">
   <cc:Work>
    <dc:type rdf:resource="http://purl.org/dc/dcmitype/StillImage"/>
    <dc:date>2026-10-05T02:11:58.635921</dc:date>
    <dc:format>image/svg+xml</dc:format>
    <dc:creator>
     <cc:Agent>
      <dc:title>Matplotlib v3.10.8, https://matplotlib.org/</dc:title>
     </cc:Agent>
    </dc:creator>
   </cc:Work>
  </rdf:RDF>
 </metadata>
 <defs>
  <style type="text/css">*{stroke-linejoin: round; stroke-linecap: butt}</style>
 </defs>
 <g id="figure_1">
  <g id="patch_1">
   <path d="M 0 193.708928 
L 196.835421 193.708928 
L 196.835421 0 
L 0 0 
z
" style="fill: #ffffff"/>
  </g>
  <g id="axes_1">
   <g id="patch_2">
    <path d="M 11.075421 184.608 
L 189.635421 184.608 
L 189.635421 7.2 
L 11.075421 7.2 
z
" style="fill: #ffffff"/>
   </g>
   <g id="line2d_1">
    <path d="M 22.039632 173.714526 
L 22.039632 18.093474 
" clip-path="url(#pc0d92bb0dc)" style="fill: none; stroke: #aaaaaa; stroke-width: 0.6; stroke-linecap: square"/>
   </g>
   <g id="line2d_2">
    <path d="M 37.702789 173.714526 
L 37.702789 18.093474 
" clip-path="url(#pc0d92bb0dc)" style="fill: none; stroke: #aaaaaa; stroke-width: 0.6; stroke-linecap: square"/>
   </g>
   <g id="line2d_3">
    <path d="M 53.365947 173.714526 
L 53.365947 18.093474 
" clip-path="url(#pc0d92bb0dc)" style="fill: none; stroke: #aaaaaa; stroke-width: 0.6; stroke-linecap: square"/>
   </g>
   <g id="line2d_4">
    <path d="M 69.029105 173.714526 
L 69.029105 18.093474 
" clip-path="url(#pc0d92bb0dc)" style="fill: none; stroke: #aaaaaa; stroke-width: 0.6; stroke-linecap: square"/>
   </g>
   <g id="line2d_5">
    <path d="M 84.692263 173.714526 
L 84.692263 18.093474 
" clip-path="url(#pc0d92bb0dc)" style="fill: none; stroke: #aaaaaa; stroke-width: 0.6; stroke-linecap: square"/>
   </g>
   <g id="line2d_6">
    <path d="M 100.355421 173.714526 
L 100.355421 18.093474 
" clip-path="url(#pc0d92bb0dc)" style="fill: none; stroke: #aaaaaa; stroke-width: 0.6; stroke-linecap: square"/>
   </g>
   <g id="line2d_7">
    <path d="M 116.018579 173.714526 
L 116.018579 18.093474 
" clip-path="url(#pc0d92bb0dc)" style="fill: none; stroke: #aaaaaa; stroke-width: 0.6; stroke-linecap: square"/>
   </g>
   <g id="line2d_8">
    <path d="M 131.681737 173.714526 
L 131.681737 18.093474 
" clip-path="url(#pc0d92bb0dc)" style="fill: none; stroke: #aaaaaa; stroke-width: 0.6; stroke-linecap: square"/>
   </g>
   <g id="line2d_9">
    <path d="M 147.344895 173.714526 
L 147.344895 18.093474 
" clip-path="url(#pc0d92bb0dc)" style="fill: none; stroke: #aaaaaa; stroke-width: 0.6; stroke-linecap: square"/>
   </g>
   <g id="line2d_10">
    <path d="M 163.008053 173.714526 
L 163.008053 18.093474 
" clip-path="url(#pc0d92bb0dc)" style="fill: none; stroke: #aaaaaa; stroke-width: 0.6; stroke-linecap: square"/>
   </g>
   <g id="line2d_11">
    <path d="M 178.671211 173.714526 
L 178.671211 18.093474 
" clip-path="url(#pc0d92bb0dc)" style="fill: none; stroke: #aaaaaa; stroke-width: 0.6; stroke-linecap: square"/>
   </g>
   <g id="line2d_12">
    <path d="M 22.039632 173.714526 
L 178.671211 173.714526 
" clip-path="url(#pc0d92bb0dc)" style="fill: none; stroke: #aaaaaa; stroke-width: 0.6; stroke-linecap: square"/>
   </g>
   <g id="line2d_13">
    <path d="M 22.039632 158.152421 
L 178.671211 158.152421 
" clip-path="url(#pc0d92bb0dc)" style="fill: none; stroke: #aaaaaa; stroke-width: 0.6; stroke-linecap: square"/>
   </g>
   <g id="line2d_14">
    <path d="M 22.039632 142.590316 
L 178.671211 142.590316 
" clip-path="url(#pc0d92bb0dc)" style="fill: none; stroke: #aaaaaa; stroke-width: 0.6; stroke-linecap: square"/>
   </g>
   <g id="line2d_15">
    <path d="M 22.039632 127.028211 
L 178.671211 127.028211 
" clip-path="url(#pc0d92bb0dc)" style="fill: none; stroke: #aaaaaa; stroke-width: 0.6; stroke-linecap: square"/>
   </g>
   <g id="line2d_16">
    <path d="M 22.039632 111.466105 
L 178.671211 111.466105 
" clip-path="url(#pc0d92bb0dc)" style="fill: none; stroke: #aaaaaa; stroke-width: 0.6; stroke-linecap: square"/>
   </g>
   <g id="line2d_17">
    <path d="M 22.039632 95.904 
L 178.671211 95.904 
" clip-path="url(#pc0d92bb0dc)" style="fill: none; stroke: #aaaaaa; stroke-width: 0.6; stroke-linecap: square"/>
   </g>
   <g id="line2d_18">
    <path d="M 22.039632 80.341895 
L 178.671211 80.341895 
" clip-path="url(#pc0d92bb0dc)" style="fill: none; stroke: #aaaaaa; stroke-width: 0.6; stroke-linecap: square"/>
   </g>
   <g id="line2d_19">
    <path d="M 22.039632 64.779789 
L 178.671211 64.779789 
" clip-path="url(#pc0d92bb0dc)" style="fill: none; stroke: #aaaaaa; stroke-width: 0.6; stroke-linecap: square"/>
   </g>
   <g id="line2d_20">
    <path d="M 22.039632 49.217684 
L 178.671211 49.217684 
" clip-path="url(#pc0d92bb0dc)" style="fill: none; stroke: #aaaaaa; stroke-width: 0.6; stroke-linecap: square"/>
   </g>
   <g id="line2d_21">
    <path d="M 22.039632 33.655579 
L 178.671211 33.655579 
" clip-path="url(#pc0d92bb0dc)" style="fill: none; stroke: #aaaaaa; stroke-width: 0.6; stroke-linecap: square"/>
   </g>
   <g id="line2d_22">
    <path d="M 22.039632 18.093474 
L 178.671211 18.093474 
" clip-path="url(#pc0d92bb0dc)" style="fill: none; stroke: #aaaaaa; stroke-width: 0.6; stroke-linecap: square"/>
   </g>
   <g id="matplotlib.axis_1"/>
   <g id="matplotlib.axis_2"/>
   <g id="line2d_23">
    <path d="M 22.039632 173.714526 
L 178.671211 173.714526 
" clip-path="url(#pc0d92bb0dc)" style="fill: none; stroke: #222222; stroke-width: 1.8; stroke-linecap: square"/>
   </g>
   <g id="line2d_24">
    <path d="M 22.039632 173.714526 
L 22.039632 18.093474 
" clip-path="url(#pc0d92bb0dc)" style="fill: none; stroke: #222222; stroke-width: 1.8; stroke-linecap: square"/>
   </g>
   <g id="text_1">
    <!-- 2 -->
    <g style="fill: #252b33" transform="translate(50.439197 184.595615) scale(0.092 -0.092)">
     <defs>
      <path id="DejaVuSans-32" d="M 1228 531 
L 3431 531 
L 3431 0 
L 469 0 
L 469 531 
Q 828 903 1448 1529 
Q 2069 2156 2228 2338 
Q 2531 2678 2651 2914 
Q 2772 3150 2772 3378 
Q 2772 3750 2511 3984 
Q 2250 4219 1831 4219 
Q 1534 4219 1204 4116 
Q 875 4013 500 3803 
L 500 4441 
Q 881 4594 1212 4672 
Q 1544 4750 1819 4750 
Q 2544 4750 2975 4387 
Q 3406 4025 3406 3419 
Q 3406 3131 3298 2873 
Q 3191 2616 2906 2266 
Q 2828 2175 2409 1742 
Q 1991 1309 1228 531 
z
" transform="scale(0.015625)"/>
     </defs>
     <use xlink:href="#DejaVuSans-32"/>
    </g>
   </g>
   <g id="text_2">
    <!-- 4 -->
    <g style="fill: #252b33" transform="translate(81.765513 184.595615) scale(0.092 -0.092)">
     <defs>
      <path id="DejaVuSans-34" d="M 2419 4116 
L 825 1625 
L 2419 1625 
L 2419 4116 
z
M 2253 4666 
L 3047 4666 
L 3047 1625 
L 3713 1625 
L 3713 1100 
L 3047 1100 
L 3047 0 
L 2419 0 
L 2419 1100 
L 313 1100 
L 313 1709 
L 2253 4666 
z
" transform="scale(0.015625)"/>
     </defs>
     <use xlink:href="#DejaVuSans-34"/>
    </g>
   </g>
   <g id="text_3">
    <!-- 6 -->
    <g style="fill: #252b33" transform="translate(113.091829 184.595615) scale(0.092 -0.092)">
     <defs>
      <path id="DejaVuSans-36" d="M 2113 2584 
Q 1688 2584 1439 2293 
Q 1191 2003 1191 1497 
Q 1191 994 1439 701 
Q 1688 409 2113 409 
Q 2538 409 2786 701 
Q 3034 994 3034 1497 
Q 3034 2003 2786 2293 
Q 2538 2584 2113 2584 
z
M 3366 4563 
L 3366 3988 
Q 3128 4100 2886 4159 
Q 2644 4219 2406 4219 
Q 1781 4219 1451 3797 
Q 1122 3375 1075 2522 
Q 1259 2794 1537 2939 
Q 1816 3084 2150 3084 
Q 2853 3084 3261 2657 
Q 3669 2231 3669 1497 
Q 3669 778 3244 343 
Q 2819 -91 2113 -91 
Q 1303 -91 875 529 
Q 447 1150 447 2328 
Q 447 3434 972 4092 
Q 1497 4750 2381 4750 
Q 2619 4750 2861 4703 
Q 3103 4656 3366 4563 
z
" transform="scale(0.015625)"/>
     </defs>
     <use xlink:href="#DejaVuSans-36"/>
    </g>
   </g>
   <g id="text_4">
    <!-- 8 -->
    <g style="fill: #252b33" transform="translate(144.418145 184.595615) scale(0.092 -0.092)">
     <defs>
      <path id="DejaVuSans-38" d="M 2034 2216 
Q 1584 2216 1326 1975 
Q 1069 1734 1069 1313 
Q 1069 891 1326 650 
Q 1584 409 2034 409 
Q 2484 409 2743 651 
Q 3003 894 3003 1313 
Q 3003 1734 2745 1975 
Q 2488 2216 2034 2216 
z
M 1403 2484 
Q 997 2584 770 2862 
Q 544 3141 544 3541 
Q 544 4100 942 4425 
Q 1341 4750 2034 4750 
Q 2731 4750 3128 4425 
Q 3525 4100 3525 3541 
Q 3525 3141 3298 2862 
Q 3072 2584 2669 2484 
Q 3125 2378 3379 2068 
Q 3634 1759 3634 1313 
Q 3634 634 3220 271 
Q 2806 -91 2034 -91 
Q 1263 -91 848 271 
Q 434 634 434 1313 
Q 434 1759 690 2068 
Q 947 2378 1403 2484 
z
M 1172 3481 
Q 1172 3119 1398 2916 
Q 1625 2713 2034 2713 
Q 2441 2713 2670 2916 
Q 2900 3119 2900 3481 
Q 2900 3844 2670 4047 
Q 2441 4250 2034 4250 
Q 1625 4250 1398 4047 
Q 1172 3844 1172 3481 
z
" transform="scale(0.015625)"/>
     </defs>
     <use xlink:href="#DejaVuSans-38"/>
    </g>
   </g>
   <g id="text_5">
    <!-- 10 -->
    <g style="fill: #252b33" transform="translate(172.817711 184.595615) scale(0.092 -0.092)">
     <defs>
      <path id="DejaVuSans-31" d="M 794 531 
L 1825 531 
L 1825 4091 
L 703 3866 
L 703 4441 
L 1819 4666 
L 2450 4666 
L 2450 531 
L 3481 531 
L 3481 0 
L 794 0 
L 794 531 
z
" transform="scale(0.015625)"/>
      <path id="DejaVuSans-30" d="M 2034 4250 
Q 1547 4250 1301 3770 
Q 1056 3291 1056 2328 
Q 1056 1369 1301 889 
Q 1547 409 2034 409 
Q 2525 409 2770 889 
Q 3016 1369 3016 2328 
Q 3016 3291 2770 3770 
Q 2525 4250 2034 4250 
z
M 2034 4750 
Q 2819 4750 3233 4129 
Q 3647 3509 3647 2328 
Q 3647 1150 3233 529 
Q 2819 -91 2034 -91 
Q 1250 -91 836 529 
Q 422 1150 422 2328 
Q 422 3509 836 4129 
Q 1250 4750 2034 4750 
z
" transform="scale(0.015625)"/>
     </defs>
     <use xlink:href="#DejaVuSans-31"/>
     <use xlink:href="#DejaVuSans-30" transform="translate(63.623047 0)"/>
    </g>
   </g>
   <g id="text_6">
    <!-- 2 -->
    <g style="fill: #252b33" transform="translate(13.0535 145.128941) scale(0.092 -0.092)">
     <use xlink:href="#DejaVuSans-32"/>
    </g>
   </g>
   <g id="text_7">
    <!-- 4 -->
    <g style="fill: #252b33" transform="translate(13.0535 114.00473) scale(0.092 -0.092)">
     <use xlink:href="#DejaVuSans-34"/>
    </g>
   </g>
   <g id="text_8">
    <!-- 6 -->
    <g style="fill: #252b33" transform="translate(13.0535 82.88052) scale(0.092 -0.092)">
     <use xlink:href="#DejaVuSans-36"/>
    </g>
   </g>
   <g id="text_9">
    <!-- 8 -->
    <g style="fill: #252b33" transform="translate(13.0535 51.756309) scale(0.092 -0.092)">
     <use xlink:href="#DejaVuSans-38"/>
    </g>
   </g>
   <g id="text_10">
    <!-- 10 -->
    <g style="fill: #252b33" transform="translate(7.2 20.632099) scale(0.092 -0.092)">
     <use xlink:href="#DejaVuSans-31"/>
     <use xlink:href="#DejaVuSans-30" transform="translate(63.623047 0)"/>
    </g>
   </g>
  </g>
 </g>
 <defs>
  <clipPath id="pc0d92bb0dc">
   <rect x="11.075421" y="7.2" width="178.56" height="177.408"/>
  </clipPath>
 </defs>
</svg>
