<?xml version="1.0" encoding="utf-8" standalone="no"?>
<!DOCTYPE svg PUBLIC "-//W3C//DTD SVG 1.1//EN"
  "http://www.w3.org/Graphics/SVG/1.1/DTD/svg11.dtd">
<svg xmlns:xlink="http://www.w3.org/1999/xlink" width="271.833409pt" height="208.047223pt" viewBox="0 0 271.833409 208.047223" xmlns="http://www.w3.org/2000/svg" version="1.1">
 <metadata>
  <rdf:RDF xmlns:dc="http://purl.org/dc/elements/1.1/" xmlns:cc="http://creativecommons.org/ns#" xmlns:rdf="http://www.w3.org/1999/02/22-rdf-syntax-ns#">
   <cc:Work>
    <dc:type rdf:resource="http://purl.org/dc/dcmitype/StillImage"/>
    <dc:date>2026-09-22T01:49:34.821378</dc:date>
    <dc:format>image/svg+xml</dc:format>
    <dc:creator>
     <cc:Agent>
      <dc:title>Matplotlib v3.10.8, https://matplotlib.org/</dc:title>
     </cc:Agent>
    </dc:creator>
   </cc:Work>
  </rdf:RDF>
 </metadata>
 <defs>
  <style type="text/css">*{stroke-linejoin: round; stroke-linecap: butt}</style>
 </defs>
 <g id="figure_1">
  <g id="patch_1">
   <path d="M 0 208.047223 
L 271.833409 208.047223 
L 271.833409 0 
L 0 0 
z
" style="fill: #ffffff"/>
  </g>
  <g id="axes_1">
   <g id="patch_2">
    <path d="M 12.273409 201.750014 
L 268.953409 201.750014 
L 268.953409 4.938014 
L 12.273409 4.938014 
z
" style="fill: #ffffff"/>
   </g>
   <g id="line2d_1">
    <path d="M 23.940682 191.838618 
L 23.940682 14.84941 
" clip-path="url(#pf4daa1daa7)" style="fill: none; stroke: #aaaaaa; stroke-width: 0.6; stroke-linecap: square"/>
   </g>
   <g id="line2d_2">
    <path d="M 40.608214 191.838618 
L 40.608214 14.84941 
" clip-path="url(#pf4daa1daa7)" style="fill: none; stroke: #aaaaaa; stroke-width: 0.6; stroke-linecap: square"/>
   </g>
   <g id="line2d_3">
    <path d="M 57.275747 191.838618 
L 57.275747 14.84941 
" clip-path="url(#pf4daa1daa7)" style="fill: none; stroke: #aaaaaa; stroke-width: 0.6; stroke-linecap: square"/>
   </g>
   <g id="line2d_4">
    <path d="M 73.943279 191.838618 
L 73.943279 14.84941 
" clip-path="url(#pf4daa1daa7)" style="fill: none; stroke: #aaaaaa; stroke-width: 0.6; stroke-linecap: square"/>
   </g>
   <g id="line2d_5">
    <path d="M 90.610812 191.838618 
L 90.610812 14.84941 
" clip-path="url(#pf4daa1daa7)" style="fill: none; stroke: #aaaaaa; stroke-width: 0.6; stroke-linecap: square"/>
   </g>
   <g id="line2d_6">
    <path d="M 107.278344 191.838618 
L 107.278344 14.84941 
" clip-path="url(#pf4daa1daa7)" style="fill: none; stroke: #aaaaaa; stroke-width: 0.6; stroke-linecap: square"/>
   </g>
   <g id="line2d_7">
    <path d="M 123.945877 191.838618 
L 123.945877 14.84941 
" clip-path="url(#pf4daa1daa7)" style="fill: none; stroke: #aaaaaa; stroke-width: 0.6; stroke-linecap: square"/>
   </g>
   <g id="line2d_8">
    <path d="M 140.613409 191.838618 
L 140.613409 14.84941 
" clip-path="url(#pf4daa1daa7)" style="fill: none; stroke: #aaaaaa; stroke-width: 0.6; stroke-linecap: square"/>
   </g>
   <g id="line2d_9">
    <path d="M 157.280942 191.838618 
L 157.280942 14.84941 
" clip-path="url(#pf4daa1daa7)" style="fill: none; stroke: #aaaaaa; stroke-width: 0.6; stroke-linecap: square"/>
   </g>
   <g id="line2d_10">
    <path d="M 173.948474 191.838618 
L 173.948474 14.84941 
" clip-path="url(#pf4daa1daa7)" style="fill: none; stroke: #aaaaaa; stroke-width: 0.6; stroke-linecap: square"/>
   </g>
   <g id="line2d_11">
    <path d="M 190.616006 191.838618 
L 190.616006 14.84941 
" clip-path="url(#pf4daa1daa7)" style="fill: none; stroke: #aaaaaa; stroke-width: 0.6; stroke-linecap: square"/>
   </g>
   <g id="line2d_12">
    <path d="M 207.283539 191.838618 
L 207.283539 14.84941 
" clip-path="url(#pf4daa1daa7)" style="fill: none; stroke: #aaaaaa; stroke-width: 0.6; stroke-linecap: square"/>
   </g>
   <g id="line2d_13">
    <path d="M 223.951071 191.838618 
L 223.951071 14.84941 
" clip-path="url(#pf4daa1daa7)" style="fill: none; stroke: #aaaaaa; stroke-width: 0.6; stroke-linecap: square"/>
   </g>
   <g id="line2d_14">
    <path d="M 240.618604 191.838618 
L 240.618604 14.84941 
" clip-path="url(#pf4daa1daa7)" style="fill: none; stroke: #aaaaaa; stroke-width: 0.6; stroke-linecap: square"/>
   </g>
   <g id="line2d_15">
    <path d="M 257.286136 191.838618 
L 257.286136 14.84941 
" clip-path="url(#pf4daa1daa7)" style="fill: none; stroke: #aaaaaa; stroke-width: 0.6; stroke-linecap: square"/>
   </g>
   <g id="line2d_16">
    <path d="M 23.940682 191.838618 
L 257.286136 191.838618 
" clip-path="url(#pf4daa1daa7)" style="fill: none; stroke: #aaaaaa; stroke-width: 0.6; stroke-linecap: square"/>
   </g>
   <g id="line2d_17">
    <path d="M 23.940682 177.679481 
L 257.286136 177.679481 
" clip-path="url(#pf4daa1daa7)" style="fill: none; stroke: #aaaaaa; stroke-width: 0.6; stroke-linecap: square"/>
   </g>
   <g id="line2d_18">
    <path d="M 23.940682 163.520345 
L 257.286136 163.520345 
" clip-path="url(#pf4daa1daa7)" style="fill: none; stroke: #aaaaaa; stroke-width: 0.6; stroke-linecap: square"/>
   </g>
   <g id="line2d_19">
    <path d="M 23.940682 149.361208 
L 257.286136 149.361208 
" clip-path="url(#pf4daa1daa7)" style="fill: none; stroke: #aaaaaa; stroke-width: 0.6; stroke-linecap: square"/>
   </g>
   <g id="line2d_20">
    <path d="M 23.940682 135.202071 
L 257.286136 135.202071 
" clip-path="url(#pf4daa1daa7)" style="fill: none; stroke: #aaaaaa; stroke-width: 0.6; stroke-linecap: square"/>
   </g>
   <g id="line2d_21">
    <path d="M 23.940682 121.042935 
L 257.286136 121.042935 
" clip-path="url(#pf4daa1daa7)" style="fill: none; stroke: #aaaaaa; stroke-width: 0.6; stroke-linecap: square"/>
   </g>
   <g id="line2d_22">
    <path d="M 23.940682 106.883798 
L 257.286136 106.883798 
" clip-path="url(#pf4daa1daa7)" style="fill: none; stroke: #aaaaaa; stroke-width: 0.6; stroke-linecap: square"/>
   </g>
   <g id="line2d_23">
    <path d="M 23.940682 92.724661 
L 257.286136 92.724661 
" clip-path="url(#pf4daa1daa7)" style="fill: none; stroke: #aaaaaa; stroke-width: 0.6; stroke-linecap: square"/>
   </g>
   <g id="line2d_24">
    <path d="M 23.940682 78.565525 
L 257.286136 78.565525 
" clip-path="url(#pf4daa1daa7)" style="fill: none; stroke: #aaaaaa; stroke-width: 0.6; stroke-linecap: square"/>
   </g>
   <g id="line2d_25">
    <path d="M 23.940682 64.406388 
L 257.286136 64.406388 
" clip-path="url(#pf4daa1daa7)" style="fill: none; stroke: #aaaaaa; stroke-width: 0.6; stroke-linecap: square"/>
   </g>
   <g id="line2d_26">
    <path d="M 23.940682 50.247251 
L 257.286136 50.247251 
" clip-path="url(#pf4daa1daa7)" style="fill: none; stroke: #aaaaaa; stroke-width: 0.6; stroke-linecap: square"/>
   </g>
   <g id="line2d_27">
    <path d="M 23.940682 36.088115 
L 257.286136 36.088115 
" clip-path="url(#pf4daa1daa7)" style="fill: none; stroke: #aaaaaa; stroke-width: 0.6; stroke-linecap: square"/>
   </g>
   <g id="line2d_28">
    <path d="M 23.940682 21.928978 
L 257.286136 21.928978 
" clip-path="url(#pf4daa1daa7)" style="fill: none; stroke: #aaaaaa; stroke-width: 0.6; stroke-linecap: square"/>
   </g>
   <g id="matplotlib.axis_1"/>
   <g id="matplotlib.axis_2"/>
   <g id="line2d_29">
    <path d="M 23.940682 191.838618 
L 257.286136 191.838618 
" clip-path="url(#pf4daa1daa7)" style="fill: none; stroke: #222222; stroke-width: 1.8; stroke-linecap: square"/>
   </g>
   <g id="line2d_30">
    <path d="M 23.940682 191.838618 
L 23.940682 14.84941 
" clip-path="url(#pf4daa1daa7)" style="fill: none; stroke: #222222; stroke-width: 1.8; stroke-linecap: square"/>
   </g>
   <g id="line2d_31">
    <path d="M 23.940682 156.440776 
L 257.286136 32.54833 
L 257.286136 32.54833 
" clip-path="url(#pf4daa1daa7)" style="fill: none; stroke: #4682b4; stroke-width: 2; stroke-linecap: square"/>
   </g>
   <g id="patch_3">
    <path d="M 23.940682 156.440776 
Q 23.641622 156.599559 24.823782 155.971903 
" style="fill: none; stroke: #4682b4; stroke-width: 1.5; stroke-linecap: round"/>
    <path d="M 30.188742 155.840733 
L 24.823782 155.971903 
L 27.937822 151.601233 
z
" style="fill: #4682b4; stroke: #4682b4; stroke-width: 1.5; stroke-linecap: round"/>
   </g>
   <g id="patch_4">
    <path d="M 257.286136 32.54833 
Q 257.585196 32.389547 256.403036 33.017204 
" style="fill: none; stroke: #4682b4; stroke-width: 1.5; stroke-linecap: round"/>
    <path d="M 251.038076 33.148374 
L 256.403036 33.017204 
L 253.288997 37.387874 
z
" style="fill: #4682b4; stroke: #4682b4; stroke-width: 1.5; stroke-linecap: round"/>
   </g>
   <g id="text_1">
    <!-- x -->
    <g style="fill: #222222" transform="translate(260.552973 188.756732) scale(0.095 -0.095)">
     <defs>
      <path id="DejaVuSans-Bold-78" d="M 1422 1791 
L 159 3500 
L 1344 3500 
L 2059 2463 
L 2784 3500 
L 3969 3500 
L 2706 1797 
L 4031 0 
L 2847 0 
L 2059 1106 
L 1281 0 
L 97 0 
L 1422 1791 
z
" transform="scale(0.015625)"/>
     </defs>
     <use xlink:href="#DejaVuSans-Bold-78"/>
    </g>
   </g>
   <g id="text_2">
    <!-- y -->
    <g style="fill: #222222" transform="translate(25.165745 10.024297) scale(0.095 -0.095)">
     <defs>
      <path id="DejaVuSans-Bold-79" d="M 78 3500 
L 1197 3500 
L 2138 1125 
L 2938 3500 
L 4056 3500 
L 2584 -331 
Q 2363 -916 2067 -1148 
Q 1772 -1381 1288 -1381 
L 641 -1381 
L 641 -647 
L 991 -647 
Q 1275 -647 1404 -556 
Q 1534 -466 1606 -231 
L 1638 -134 
L 78 3500 
z
" transform="scale(0.015625)"/>
     </defs>
     <use xlink:href="#DejaVuSans-Bold-79"/>
    </g>
   </g>
   <g id="text_3">
    <!-- 1 -->
    <g style="fill: #252b33" transform="translate(54.348997 203.253911) scale(0.092 -0.092)">
     <defs>
      <path id="DejaVuSans-31" d="M 794 531 
L 1825 531 
L 1825 4091 
L 703 3866 
L 703 4441 
L 1819 4666 
L 2450 4666 
L 2450 531 
L 3481 531 
L 3481 0 
L 794 0 
L 794 531 
z
" transform="scale(0.015625)"/>
     </defs>
     <use xlink:href="#DejaVuSans-31"/>
    </g>
   </g>
   <g id="text_4">
    <!-- 2 -->
    <g style="fill: #252b33" transform="translate(87.684062 203.253911) scale(0.092 -0.092)">
     <defs>
      <path id="DejaVuSans-32" d="M 1228 531 
L 3431 531 
L 3431 0 
L 469 0 
L 469 531 
Q 828 903 1448 1529 
Q 2069 2156 2228 2338 
Q 2531 2678 2651 2914 
Q 2772 3150 2772 3378 
Q 2772 3750 2511 3984 
Q 2250 4219 1831 4219 
Q 1534 4219 1204 4116 
Q 875 4013 500 3803 
L 500 4441 
Q 881 4594 1212 4672 
Q 1544 4750 1819 4750 
Q 2544 4750 2975 4387 
Q 3406 4025 3406 3419 
Q 3406 3131 3298 2873 
Q 3191 2616 2906 2266 
Q 2828 2175 2409 1742 
Q 1991 1309 1228 531 
z
" transform="scale(0.015625)"/>
     </defs>
     <use xlink:href="#DejaVuSans-32"/>
    </g>
   </g>
   <g id="text_5">
    <!-- 3 -->
    <g style="fill: #252b33" transform="translate(121.019127 203.253911) scale(0.092 -0.092)">
     <defs>
      <path id="DejaVuSans-33" d="M 2597 2516 
Q 3050 2419 3304 2112 
Q 3559 1806 3559 1356 
Q 3559 666 3084 287 
Q 2609 -91 1734 -91 
Q 1441 -91 1130 -33 
Q 819 25 488 141 
L 488 750 
Q 750 597 1062 519 
Q 1375 441 1716 441 
Q 2309 441 2620 675 
Q 2931 909 2931 1356 
Q 2931 1769 2642 2001 
Q 2353 2234 1838 2234 
L 1294 2234 
L 1294 2753 
L 1863 2753 
Q 2328 2753 2575 2939 
Q 2822 3125 2822 3475 
Q 2822 3834 2567 4026 
Q 2313 4219 1838 4219 
Q 1578 4219 1281 4162 
Q 984 4106 628 3988 
L 628 4550 
Q 988 4650 1302 4700 
Q 1616 4750 1894 4750 
Q 2613 4750 3031 4423 
Q 3450 4097 3450 3541 
Q 3450 3153 3228 2886 
Q 3006 2619 2597 2516 
z
" transform="scale(0.015625)"/>
     </defs>
     <use xlink:href="#DejaVuSans-33"/>
    </g>
   </g>
   <g id="text_6">
    <!-- 4 -->
    <g style="fill: #252b33" transform="translate(154.354192 203.253911) scale(0.092 -0.092)">
     <defs>
      <path id="DejaVuSans-34" d="M 2419 4116 
L 825 1625 
L 2419 1625 
L 2419 4116 
z
M 2253 4666 
L 3047 4666 
L 3047 1625 
L 3713 1625 
L 3713 1100 
L 3047 1100 
L 3047 0 
L 2419 0 
L 2419 1100 
L 313 1100 
L 313 1709 
L 2253 4666 
z
" transform="scale(0.015625)"/>
     </defs>
     <use xlink:href="#DejaVuSans-34"/>
    </g>
   </g>
   <g id="text_7">
    <!-- 5 -->
    <g style="fill: #252b33" transform="translate(187.689256 203.253911) scale(0.092 -0.092)">
     <defs>
      <path id="DejaVuSans-35" d="M 691 4666 
L 3169 4666 
L 3169 4134 
L 1269 4134 
L 1269 2991 
Q 1406 3038 1543 3061 
Q 1681 3084 1819 3084 
Q 2600 3084 3056 2656 
Q 3513 2228 3513 1497 
Q 3513 744 3044 326 
Q 2575 -91 1722 -91 
Q 1428 -91 1123 -41 
Q 819 9 494 109 
L 494 744 
Q 775 591 1075 516 
Q 1375 441 1709 441 
Q 2250 441 2565 725 
Q 2881 1009 2881 1497 
Q 2881 1984 2565 2268 
Q 2250 2553 1709 2553 
Q 1456 2553 1204 2497 
Q 953 2441 691 2322 
L 691 4666 
z
" transform="scale(0.015625)"/>
     </defs>
     <use xlink:href="#DejaVuSans-35"/>
    </g>
   </g>
   <g id="text_8">
    <!-- 6 -->
    <g style="fill: #252b33" transform="translate(221.024321 203.253911) scale(0.092 -0.092)">
     <defs>
      <path id="DejaVuSans-36" d="M 2113 2584 
Q 1688 2584 1439 2293 
Q 1191 2003 1191 1497 
Q 1191 994 1439 701 
Q 1688 409 2113 409 
Q 2538 409 2786 701 
Q 3034 994 3034 1497 
Q 3034 2003 2786 2293 
Q 2538 2584 2113 2584 
z
M 3366 4563 
L 3366 3988 
Q 3128 4100 2886 4159 
Q 2644 4219 2406 4219 
Q 1781 4219 1451 3797 
Q 1122 3375 1075 2522 
Q 1259 2794 1537 2939 
Q 1816 3084 2150 3084 
Q 2853 3084 3261 2657 
Q 3669 2231 3669 1497 
Q 3669 778 3244 343 
Q 2819 -91 2113 -91 
Q 1303 -91 875 529 
Q 447 1150 447 2328 
Q 447 3434 972 4092 
Q 1497 4750 2381 4750 
Q 2619 4750 2861 4703 
Q 3103 4656 3366 4563 
z
" transform="scale(0.015625)"/>
     </defs>
     <use xlink:href="#DejaVuSans-36"/>
    </g>
   </g>
   <g id="text_9">
    <!-- 7 -->
    <g style="fill: #252b33" transform="translate(254.359386 203.253911) scale(0.092 -0.092)">
     <defs>
      <path id="DejaVuSans-37" d="M 525 4666 
L 3525 4666 
L 3525 4397 
L 1831 0 
L 1172 0 
L 2766 4134 
L 525 4134 
L 525 4666 
z
" transform="scale(0.015625)"/>
     </defs>
     <use xlink:href="#DejaVuSans-37"/>
    </g>
   </g>
   <g id="text_10">
    <!-- 20 -->
    <g style="fill: #252b33" transform="translate(8.7335 166.05897) scale(0.092 -0.092)">
     <defs>
      <path id="DejaVuSans-30" d="M 2034 4250 
Q 1547 4250 1301 3770 
Q 1056 3291 1056 2328 
Q 1056 1369 1301 889 
Q 1547 409 2034 409 
Q 2525 409 2770 889 
Q 3016 1369 3016 2328 
Q 3016 3291 2770 3770 
Q 2525 4250 2034 4250 
z
M 2034 4750 
Q 2819 4750 3233 4129 
Q 3647 3509 3647 2328 
Q 3647 1150 3233 529 
Q 2819 -91 2034 -91 
Q 1250 -91 836 529 
Q 422 1150 422 2328 
Q 422 3509 836 4129 
Q 1250 4750 2034 4750 
z
" transform="scale(0.015625)"/>
     </defs>
     <use xlink:href="#DejaVuSans-32"/>
     <use xlink:href="#DejaVuSans-30" transform="translate(63.623047 0)"/>
    </g>
   </g>
   <g id="text_11">
    <!-- 40 -->
    <g style="fill: #252b33" transform="translate(8.7335 137.740696) scale(0.092 -0.092)">
     <use xlink:href="#DejaVuSans-34"/>
     <use xlink:href="#DejaVuSans-30" transform="translate(63.623047 0)"/>
    </g>
   </g>
   <g id="text_12">
    <!-- 60 -->
    <g style="fill: #252b33" transform="translate(8.7335 109.422423) scale(0.092 -0.092)">
     <use xlink:href="#DejaVuSans-36"/>
     <use xlink:href="#DejaVuSans-30" transform="translate(63.623047 0)"/>
    </g>
   </g>
   <g id="text_13">
    <!-- 80 -->
    <g style="fill: #252b33" transform="translate(8.7335 81.10415) scale(0.092 -0.092)">
     <defs>
      <path id="DejaVuSans-38" d="M 2034 2216 
Q 1584 2216 1326 1975 
Q 1069 1734 1069 1313 
Q 1069 891 1326 650 
Q 1584 409 2034 409 
Q 2484 409 2743 651 
Q 3003 894 3003 1313 
Q 3003 1734 2745 1975 
Q 2488 2216 2034 2216 
z
M 1403 2484 
Q 997 2584 770 2862 
Q 544 3141 544 3541 
Q 544 4100 942 4425 
Q 1341 4750 2034 4750 
Q 2731 4750 3128 4425 
Q 3525 4100 3525 3541 
Q 3525 3141 3298 2862 
Q 3072 2584 2669 2484 
Q 3125 2378 3379 2068 
Q 3634 1759 3634 1313 
Q 3634 634 3220 271 
Q 2806 -91 2034 -91 
Q 1263 -91 848 271 
Q 434 634 434 1313 
Q 434 1759 690 2068 
Q 947 2378 1403 2484 
z
M 1172 3481 
Q 1172 3119 1398 2916 
Q 1625 2713 2034 2713 
Q 2441 2713 2670 2916 
Q 2900 3119 2900 3481 
Q 2900 3844 2670 4047 
Q 2441 4250 2034 4250 
Q 1625 4250 1398 4047 
Q 1172 3844 1172 3481 
z
" transform="scale(0.015625)"/>
     </defs>
     <use xlink:href="#DejaVuSans-38"/>
     <use xlink:href="#DejaVuSans-30" transform="translate(63.623047 0)"/>
    </g>
   </g>
   <g id="text_14">
    <!-- 100 -->
    <g style="fill: #252b33" transform="translate(2.88 52.785876) scale(0.092 -0.092)">
     <use xlink:href="#DejaVuSans-31"/>
     <use xlink:href="#DejaVuSans-30" transform="translate(63.623047 0)"/>
     <use xlink:href="#DejaVuSans-30" transform="translate(127.246094 0)"/>
    </g>
   </g>
   <g id="text_15">
    <!-- 120 -->
    <g style="fill: #252b33" transform="translate(2.88 24.467603) scale(0.092 -0.092)">
     <use xlink:href="#DejaVuSans-31"/>
     <use xlink:href="#DejaVuSans-32" transform="translate(63.623047 0)"/>
     <use xlink:href="#DejaVuSans-30" transform="translate(127.246094 0)"/>
    </g>
   </g>
  </g>
 </g>
 <defs>
  <clipPath id="pf4daa1daa7">
   <rect x="12.273409" y="4.938014" width="256.68" height="196.812"/>
  </clipPath>
 </defs>
</svg>
